<?xml version="1.0" encoding="utf-8"?>
<!-- Generator: Adobe Illustrator 25.4.1, SVG Export Plug-In . SVG Version: 6.00 Build 0)  -->
<svg version="1.1" id="Layer_1" xmlns="http://www.w3.org/2000/svg" xmlns:xlink="http://www.w3.org/1999/xlink" x="0px" y="0px"
	 viewBox="0 0 283.5 283.5" style="enable-background:new 0 0 283.5 283.5;" xml:space="preserve">
<g id="그룹_32" transform="translate(-306.834 -171.334)">
	<path id="패스_46" d="M448.6,213.7c-8.7,0-17,3.4-23.2,9.6l-74.3,74c-2.5,2.7-2.3,6.9,0.4,9.4c2.5,2.4,6.5,2.4,9,0l4.1-4.1v76.8
		c0,18.3,14.9,33.1,33.1,33.1h101.5c18.3,0,33.1-14.8,33.2-33.1v-76.7l4.1,4.1c2.7,2.5,6.9,2.3,9.4-0.3c2.4-2.5,2.4-6.5,0-9
		l-74.3-74C465.6,217.2,457.3,213.7,448.6,213.7z M448.6,226.9c5.2,0,10.1,2.1,13.7,5.8l56.9,56.7v90c0.1,10.9-8.6,19.8-19.5,19.9
		c-0.1,0-0.2,0-0.4,0H397.8c-10.9,0.1-19.8-8.6-19.9-19.5c0-0.1,0-0.2,0-0.4v-89.9l56.9-56.7C438.4,229,443.4,226.9,448.6,226.9z"/>
	<path id="패스_47" d="M448.6,379.1c-21,1.6-39.4-14.1-41.2-35c0-3.5,2.9-6.4,6.4-6.4c3.5,0,6.4,2.9,6.4,6.4
		c3.9,15.7,19.7,25.3,35.4,21.4c10.5-2.6,18.8-10.8,21.4-21.4c0-3.5,2.9-6.4,6.4-6.4c3.5,0,6.4,2.9,6.4,6.4
		C487.9,365,469.6,380.6,448.6,379.1z"/>
</g>
</svg>
