<?xml version="1.0" encoding="utf-8"?>
<!-- Generator: Adobe Illustrator 25.4.1, SVG Export Plug-In . SVG Version: 6.00 Build 0)  -->
<svg version="1.1" id="Layer_1" xmlns="http://www.w3.org/2000/svg" xmlns:xlink="http://www.w3.org/1999/xlink" x="0px" y="0px"
	 viewBox="0 0 283.5 283.5" style="enable-background:new 0 0 283.5 283.5;" xml:space="preserve">
<g>
	<path d="M141.7,42.5c-54.8,0-99.2,44.4-99.2,99.2s44.4,99.2,99.2,99.2s99.2-44.4,99.2-99.2S196.5,42.5,141.7,42.5z M164,224.8
		c7.4-11.7,13.1-29.1,16.1-49.7H221C210.6,199.5,189.6,217.8,164,224.8z M62.6,175.1h40.7c3,20.5,8.8,37.9,16.1,49.7
		c-25.6-6.9-46.6-25.2-56.9-49.7H62.6z M119.6,58.7c-6.6,10.6-11.9,25.8-15.1,43.7H65.3C76.4,80.9,96.1,65,119.4,58.7H119.6z
		 M218.2,102.4h-39c-3.2-17.9-8.5-33.1-15.1-43.7C187.4,65,207.1,80.9,218.2,102.4z M141.7,227.7c-3.9,0-10.7-6.6-16.6-20.9
		c-4-10.2-6.8-20.9-8.4-31.7h49.9c-1.6,10.9-4.4,21.5-8.4,31.7C152.4,221.1,145.6,227.7,141.7,227.7z M141.7,55.7
		c3.9,0,10.7,6.6,16.6,20.9c3.3,8.3,5.8,17,7.4,25.8h-47.9c1.6-8.8,4.1-17.5,7.4-25.8C131,62.4,137.9,55.7,141.7,55.7z M114.2,141.7
		c0-8.7,0.5-17.4,1.5-26.1h51.9c1,8.7,1.5,17.4,1.5,26.1c0,6.8-0.3,13.6-0.9,20.2h-53.2C114.5,155.3,114.2,148.5,114.2,141.7z
		 M101.8,161.9H58.2c-3.7-15.3-3.1-31.3,1.7-46.3h42.6c-1,8.7-1.4,17.4-1.4,26.1C101,148.6,101.3,155.4,101.8,161.9z M181,115.6
		h42.6c4.8,15,5.4,31,1.7,46.3h-43.7c0.6-6.6,0.8-13.2,0.8-20.2C182.5,133,182,124.3,181,115.6L181,115.6z"/>
</g>
</svg>
